<svg width="160" height="69" viewBox="0 0 160 69" fill="none" xmlns="http://www.w3.org/2000/svg">
<path d="M71.5674 12.2082L69.814 3.43222L68.5451 3.68559L70.2985 12.4615C70.7138 12.3694 71.1291 12.2773 71.5674 12.2082Z" fill="#F5F1E9"/>
<path d="M56.6404 27.1109C56.7097 26.6733 56.8019 26.2586 56.8942 25.844L48.104 24.0934L47.8502 25.3603L56.6404 27.1109Z" fill="#F5F1E9"/>
<path d="M62.1543 16.7917L53.664 8.31522L52.7412 9.23658L61.2314 17.7131C61.5314 17.4136 61.8544 17.0912 62.1543 16.7917Z" fill="#F5F1E9"/>
<path d="M68.1528 13.1061L63.5386 2.02672L62.3388 2.53347L66.9301 13.6128C67.3453 13.4285 67.7375 13.2673 68.1528 13.1061Z" fill="#F5F1E9"/>
<path d="M59.8241 19.4405L52.3721 14.4882L51.6569 15.5708L59.1089 20.5462C59.3396 20.1546 59.5703 19.786 59.8241 19.4405Z" fill="#F5F1E9"/>
<path d="M64.9691 14.6728L59.9857 7.23279L58.9013 7.94684L63.8848 15.3868C64.2539 15.1334 64.6 14.8801 64.9691 14.6728Z" fill="#F5F1E9"/>
<path d="M80.3344 3.68559L79.0655 3.43222L77.312 12.2082C77.7504 12.2773 78.1657 12.3694 78.581 12.4615L80.3344 3.68559Z" fill="#F5F1E9"/>
<path d="M86.5408 2.53347L85.3411 2.02672L80.7499 13.1061C81.1652 13.2673 81.5574 13.4285 81.9496 13.6128L86.5408 2.53347Z" fill="#F5F1E9"/>
<path d="M100.753 24.0934L91.9626 25.844C92.0548 26.2586 92.1471 26.6963 92.2163 27.1109L101.007 25.3603L100.753 24.0934Z" fill="#F5F1E9"/>
<path d="M91.3394 23.7016L102.437 19.0948L101.929 17.897L90.8318 22.4808C91.0164 22.8954 91.1779 23.287 91.3394 23.7016Z" fill="#F5F1E9"/>
<path d="M84.9948 15.3868L89.9782 7.94684L88.8938 7.23279L83.9104 14.6728C84.2795 14.8801 84.6256 15.1334 84.9948 15.3868Z" fill="#F5F1E9"/>
<path d="M87.625 17.7131L96.1153 9.23658L95.1924 8.31522L86.7021 16.7917C87.0251 17.0912 87.3481 17.4136 87.625 17.7131Z" fill="#F5F1E9"/>
<path d="M89.7709 20.5235L97.223 15.5482L96.5078 14.4656L89.0557 19.4409C89.3095 19.7864 89.5402 20.155 89.7709 20.5235Z" fill="#F5F1E9"/>
<path d="M75.0975 12.0007V0H73.8055V12.0007C74.0131 12.0007 74.2438 11.9777 74.4515 11.9777C74.6591 11.9777 74.8668 12.0007 75.0975 12.0007Z" fill="#F5F1E9"/>
<path d="M58.0478 22.5042L46.9504 17.9204L46.4429 19.1182L57.5402 23.702C57.7017 23.2874 57.8632 22.8958 58.0478 22.5042Z" fill="#F5F1E9"/>
<path d="M4.47585 35.1495C2.37635 35.1495 0.138428 36.4163 0.138428 39.9866C0.138428 42.8198 1.24585 43.8563 2.88392 44.5243L4.72963 45.2844C6.0447 45.8142 6.25234 46.1827 6.25234 48.0485C6.25234 49.6839 6.11391 50.7665 4.33742 50.7665C2.95314 50.7665 2.46864 49.7991 2.46864 48.8777V48.1406H0V49.0389C0 51.4114 1.84571 53.2081 4.31435 53.2081C7.22134 53.2081 8.67484 51.4575 8.67484 48.0255C8.67484 44.7777 7.77505 43.8563 6.02163 43.1883L4.06056 42.4052C2.67628 41.8523 2.56092 41.3456 2.56092 39.9636C2.56092 38.3972 3.16078 37.5911 4.36049 37.5911C5.53713 37.5911 6.22927 38.3972 6.22927 39.8023V40.3321H8.67484V39.1343C8.67484 36.7388 6.50613 35.1495 4.47585 35.1495Z" fill="#F5F1E9"/>
<path d="M11.2126 53.0468H18.7339V50.6052H13.6582V45.2383H18.0879V42.9579H13.6582V37.591H18.7339V35.2876H11.2126V53.0468Z" fill="#F5F1E9"/>
<path d="M30.0157 42.1748V53.0468H32.4844V35.2876H30.0849L26.8088 44.7546H26.6934L26.6704 44.7315L23.3942 35.2876H21.0179V53.0468H23.4635V42.1748H23.625V42.2208L26.1397 49.8681H27.3394L29.8773 42.1748H30.0157Z" fill="#F5F1E9"/>
<path d="M43.0281 50.6052H37.9524V45.2383H42.3821V42.9579H37.9524V37.591H43.0281V35.2876H35.5069V53.0468H43.0281V50.6052Z" fill="#F5F1E9"/>
<path d="M49.2807 35.1495C47.1812 35.1495 44.9433 36.4163 44.9433 39.9866C44.9433 42.8198 46.0507 43.8563 47.6888 44.5243L49.5345 45.2844C50.8495 45.8142 51.0572 46.1827 51.0572 48.0485C51.0572 49.6839 50.9187 50.7665 49.1423 50.7665C47.758 50.7665 47.2735 49.7991 47.2735 48.8777V48.1406H44.8279V49.0389C44.8279 51.4345 46.6736 53.2311 49.1423 53.2311C52.0492 53.2311 53.5027 51.4805 53.5027 48.0485C53.5027 44.8007 52.603 43.8793 50.8495 43.2113L48.8885 42.4282C47.5042 41.8754 47.3888 41.3686 47.3888 39.9866C47.3888 38.4203 47.9887 37.6141 49.1884 37.6141C50.365 37.6141 51.0572 38.4203 51.0572 39.8254V40.3551H53.5027V39.1574C53.5027 36.7388 51.311 35.1495 49.2807 35.1495Z" fill="#F5F1E9"/>
<path d="M63.1236 35.2876H54.7486V37.591H57.7018V53.0468H60.1704V37.591H63.1236V35.2876Z" fill="#F5F1E9"/>
<path d="M72.3978 37.591V35.2876H64.8766V53.0468H72.3978V50.6052H67.3221V45.2383H71.7519V42.9579H67.3221V37.591H72.3978Z" fill="#F5F1E9"/>
<path d="M83.2182 40.4936C83.2182 37.0385 81.7186 35.311 78.7424 35.311H74.6818V53.0702H77.1274V45.4459H78.7655L78.7885 45.492L81.1649 53.0932H83.7489L81.0034 44.9622L81.0495 44.9392C82.5492 44.0639 83.2182 42.7049 83.2182 40.4936ZM78.6501 43.2807H77.1274V37.5914H78.5117C80.4035 37.5914 80.7496 38.5588 80.7496 40.4476C80.7496 42.3364 80.4497 43.2807 78.6501 43.2807Z" fill="#F5F1E9"/>
<path d="M88.3635 47.749L89.7939 45.031L92.7471 53.0468H95.3311L91.2013 42.3821L91.2243 42.359L94.6851 35.2876H92.2395L88.5019 43.4647H88.3404V35.2876H85.8949V53.0468H88.3404L88.3635 47.749Z" fill="#F5F1E9"/>
<path d="M104.098 31.6259H101.952V34.0675H104.098V31.6259Z" fill="#F5F1E9"/>
<path d="M100.014 31.6259H97.8687V34.0675H100.014V31.6259Z" fill="#F5F1E9"/>
<path d="M99.184 49.2235H102.783L103.545 53.0702H105.99L102.022 35.311H99.9685L95.9771 53.0471H98.4227L99.184 49.2235ZM100.891 40.3324H101.03L102.299 46.9201H99.5993L100.891 40.3324Z" fill="#F5F1E9"/>
<path d="M110.212 42.313H110.35L110.374 42.359L114.273 53.0468H116.58V35.2876H114.134V46.0675H113.996L110.12 35.2876H107.743V53.0468H110.212V42.313Z" fill="#F5F1E9"/>
<path d="M123.478 35.1495C121.378 35.1495 119.14 36.4163 119.14 39.9866C119.14 42.8198 120.248 43.8563 121.886 44.5243L123.732 45.2844C125.047 45.8142 125.254 46.1827 125.254 48.0485C125.254 49.6839 125.116 50.7665 123.339 50.7665C121.955 50.7665 121.471 49.7991 121.471 48.8777V48.1406H119.025V49.0389C119.025 51.4345 120.871 53.2311 123.339 53.2311C126.246 53.2311 127.7 51.4805 127.7 48.0485C127.7 44.8007 126.8 43.8793 125.047 43.2113L123.086 42.4282C121.701 41.8754 121.586 41.3686 121.586 39.9866C121.586 38.4203 122.186 37.6141 123.386 37.6141C124.562 37.6141 125.254 38.4203 125.254 39.8254V40.3551H127.7V39.1574C127.7 36.7388 125.531 35.1495 123.478 35.1495Z" fill="#F5F1E9"/>
<path d="M132.683 35.2876H130.238V53.0468H137.759V50.6052H132.683V35.2876Z" fill="#F5F1E9"/>
<path d="M142.881 35.2876L138.89 53.0468H141.335L142.097 49.2001H145.696L146.457 53.0468H148.903L144.934 35.2876H142.881ZM142.535 46.9197L143.804 40.332H143.942L145.211 46.9197H142.535Z" fill="#F5F1E9"/>
<path d="M86.0564 27.2954C87.6483 27.2954 88.9172 26.0055 88.9172 24.4392H87.8329C87.8329 25.4296 87.0254 26.2128 86.0564 26.2128C85.0643 26.2128 84.2799 25.4066 84.2799 24.4392H83.1955C83.1955 25.4296 82.388 26.2128 81.419 26.2128C80.4269 26.2128 79.6425 25.4066 79.6425 24.4392H78.5582C78.5582 25.4296 77.7507 26.2128 76.7817 26.2128C75.8127 26.2128 75.0052 25.4066 75.0052 24.4392H73.9208C73.9208 25.4296 73.1133 26.2128 72.1443 26.2128C71.1753 26.2128 70.3678 25.4066 70.3678 24.4392H69.2835C69.2835 25.4296 68.476 26.2128 67.507 26.2128C66.5149 26.2128 65.7305 25.4066 65.7305 24.4392H64.6C64.6 25.4296 63.7925 26.2128 62.8235 26.2128C61.8545 26.2128 61.047 25.4066 61.047 24.4392H59.9626C59.9626 26.0285 61.2546 27.2954 62.8235 27.2954C63.7694 27.2954 64.6231 26.8347 65.1537 26.0976C65.6843 26.8117 66.5149 27.2954 67.4839 27.2954C68.4298 27.2954 69.2835 26.8347 69.8141 26.0976C70.3448 26.8117 71.1753 27.2954 72.1443 27.2954C73.0903 27.2954 73.9439 26.8347 74.4745 26.0976C75.0052 26.8117 75.8357 27.2954 76.8047 27.2954C77.7507 27.2954 78.6043 26.8347 79.1349 26.0976C79.6656 26.8117 80.4962 27.2954 81.4652 27.2954C82.4111 27.2954 83.2647 26.8347 83.7954 26.0976C84.2568 26.8347 85.1104 27.2954 86.0564 27.2954Z" fill="#F5F1E9"/>
<path d="M69.791 21.4682C70.3216 22.1823 71.1522 22.666 72.1212 22.666C73.0671 22.666 73.9208 22.2053 74.4514 21.4682C74.9821 22.1823 75.8126 22.666 76.7816 22.666C77.7276 22.666 78.5812 22.2053 79.1118 21.4682C79.6425 22.1823 80.4731 22.666 81.4421 22.666C83.034 22.666 84.3029 21.3761 84.3029 19.8098H83.2186C83.2186 20.7772 82.4111 21.5834 81.4421 21.5834C80.4731 21.5834 79.6656 20.7772 79.6656 19.8098H78.5812C78.5812 20.7772 77.7737 21.5834 76.8047 21.5834C75.8357 21.5834 75.0282 20.7772 75.0282 19.8098H73.9438C73.9438 20.7772 73.1363 21.5834 72.1674 21.5834C71.1984 21.5834 70.3909 20.7772 70.3909 19.8098H69.3065C69.3065 20.7772 68.499 21.5834 67.53 21.5834C66.5379 21.5834 65.7535 20.7772 65.7535 19.8098H64.5999C64.5999 21.3991 65.8919 22.666 67.4608 22.666C68.4298 22.666 69.2604 22.1823 69.791 21.4682Z" fill="#F5F1E9"/>
<path d="M70.3446 15.1562H69.2603C69.2603 16.7456 70.5523 18.0125 72.1211 18.0125C73.067 18.0125 73.9207 17.5518 74.4513 16.8147C74.982 17.5287 75.8125 18.0125 76.7815 18.0125C78.3735 18.0125 79.6424 16.7226 79.6424 15.1562H78.558C78.558 16.1467 77.7505 16.9299 76.7815 16.9299C75.7895 16.9299 75.005 16.1237 75.005 15.1562H73.9207C73.9207 16.1467 73.1132 16.9299 72.1442 16.9299C71.129 16.9299 70.3446 16.1237 70.3446 15.1562Z" fill="#F5F1E9"/>
<path d="M33.3611 64.7257C33.1996 64.5415 32.992 64.3802 32.7613 64.242C32.5075 64.1038 32.2306 63.9887 31.8846 63.8735C31.4693 63.7353 31.1463 63.551 30.9387 63.3667C30.7541 63.1825 30.6618 62.9752 30.6618 62.6988C30.6618 62.5375 30.6849 62.3993 30.731 62.2841C30.7772 62.169 30.8233 62.0538 30.9156 61.9617C30.9848 61.8695 31.1002 61.8004 31.2386 61.7544C31.377 61.7083 31.5154 61.6852 31.7 61.6852C31.8846 61.6852 32.0691 61.7083 32.2076 61.7774C32.346 61.8465 32.4614 61.9156 32.5536 62.0308C32.6459 62.1459 32.7151 62.2841 32.7613 62.4223C32.8074 62.5836 32.8305 62.7448 32.8305 62.9291V63.0212H33.8687V62.9291C33.8687 62.6527 33.8226 62.3763 33.7303 62.1229C33.638 61.8695 33.4996 61.6162 33.315 61.4319C33.1304 61.2246 32.8997 61.0633 32.6459 60.9482C32.3691 60.833 32.0691 60.7639 31.7231 60.7639C31.4232 60.7639 31.1232 60.81 30.8694 60.9021C30.6157 60.9942 30.3849 61.1324 30.2234 61.3167C30.0619 61.501 29.9004 61.7083 29.8082 61.9386C29.7159 62.169 29.6697 62.4454 29.6697 62.7218C29.6697 62.9982 29.7159 63.2516 29.8082 63.4589C29.9004 63.6662 30.0389 63.8735 30.2004 64.0347C30.3619 64.196 30.5695 64.3572 30.8002 64.4724C31.0309 64.5875 31.3078 64.7027 31.5846 64.8179C31.8384 64.91 32.0691 65.0021 32.2306 65.0943C32.3921 65.1864 32.5075 65.2786 32.5998 65.3707C32.6921 65.4628 32.7382 65.555 32.7844 65.6701C32.8074 65.7853 32.8305 65.9235 32.8305 66.0617C32.8305 66.3842 32.7382 66.6145 32.5767 66.7988C32.3921 66.9831 32.1384 67.0752 31.7692 67.0752C31.5846 67.0752 31.4232 67.0522 31.2847 67.0061C31.1463 66.96 31.0079 66.8909 30.8925 66.7758C30.7772 66.6836 30.6849 66.5454 30.6387 66.3842C30.5695 66.223 30.5464 66.0387 30.5464 65.8083V65.7162H29.5082V65.8083C29.5082 66.1539 29.5774 66.4763 29.7159 66.7527C29.8543 67.0291 30.0158 67.2595 30.2465 67.4437C30.4542 67.628 30.7079 67.7662 30.9848 67.8584C31.2617 67.9505 31.5385 67.9966 31.8154 67.9966C32.1384 67.9966 32.4383 67.9505 32.6921 67.8584C32.9459 67.7662 33.1766 67.628 33.3611 67.4668C33.5457 67.3056 33.6841 67.0982 33.7764 66.8449C33.8687 66.6145 33.9149 66.3381 33.9149 66.0617C33.9149 65.7853 33.8687 65.5319 33.7995 65.3246C33.638 65.1173 33.5226 64.91 33.3611 64.7257Z" fill="#F5F1E9"/>
<path d="M39.9596 60.856H38.7137L36.8219 63.4588L36.4066 64.0116V60.856H35.3684V67.9044H36.4066V65.5088L36.9834 64.8178L38.8752 67.9044H40.1211L37.6524 63.9886L39.9596 60.856Z" fill="#F5F1E9"/>
<path d="M43.3971 60.856L41.113 67.9044H42.1743L42.7049 66.1077H44.8967L45.4504 67.9044H46.5117L44.2276 60.856H43.3971ZM44.6429 65.2094H43.0048L43.8354 62.4684L44.6429 65.2094Z" fill="#F5F1E9"/>
<path d="M51.5646 65.9234L48.9345 60.856H47.9193V67.9044H48.9575V62.883L51.5646 67.8583L51.5877 67.9044H52.6028V60.856H51.5646V65.9234Z" fill="#F5F1E9"/>
<path d="M58.4399 61.5467C58.2323 61.2933 57.9785 61.086 57.6786 60.9708C57.3786 60.8326 57.0556 60.7865 56.6865 60.7865C56.3404 60.7865 55.9943 60.8556 55.6944 60.9708C55.3945 61.109 55.1407 61.2933 54.9331 61.5467C54.7254 61.8 54.5639 62.1225 54.4486 62.491C54.3332 62.8596 54.2871 63.2972 54.2871 63.804V65.0018C54.2871 65.4855 54.3563 65.9461 54.4486 66.3147C54.5639 66.6832 54.7254 67.0057 54.9331 67.2591C55.1407 67.5125 55.3945 67.6967 55.6944 67.8349C55.9943 67.9731 56.3173 68.0192 56.6865 68.0192C57.0556 68.0192 57.3786 67.9501 57.6786 67.8349C57.9785 67.6967 58.2323 67.5125 58.4399 67.2591C58.6476 67.0057 58.8091 66.6832 58.9244 66.3147C59.0398 65.9461 59.0859 65.5085 59.0859 65.0018V63.804C59.0859 63.3203 59.0398 62.8826 58.9244 62.491C58.8321 62.1225 58.6706 61.8 58.4399 61.5467ZM56.7096 67.0748C56.5019 67.0748 56.3173 67.0288 56.1328 66.9596C55.9713 66.8905 55.8328 66.7754 55.7175 66.6141C55.6021 66.4529 55.5098 66.2226 55.4406 65.9692C55.3714 65.7158 55.3483 65.3933 55.3483 65.0018V63.804C55.3483 63.4354 55.3714 63.113 55.4406 62.8596C55.5098 62.6062 55.6021 62.3759 55.7175 62.2146C55.8328 62.0534 55.9713 61.9382 56.1328 61.8691C56.2943 61.8 56.4788 61.754 56.7096 61.754C56.9403 61.754 57.1248 61.8 57.3094 61.8691C57.4709 61.9382 57.6093 62.0534 57.7247 62.2146C57.8401 62.3759 57.9323 62.6062 58.0016 62.8596C58.0708 63.136 58.0938 63.4354 58.0938 63.827V65.0248C58.0938 65.3933 58.0708 65.7158 58.0016 65.9922C57.9323 66.2456 57.8631 66.4759 57.7478 66.6372C57.6324 66.7984 57.494 66.9136 57.3325 66.9827C57.1248 67.0287 56.9172 67.0748 56.7096 67.0748Z" fill="#F5F1E9"/>
<path d="M58.1862 60.3032C58.2785 60.188 58.3477 60.0498 58.3477 59.8886C58.3477 59.7273 58.3015 59.5891 58.1862 59.474C58.0708 59.3588 57.9324 59.2897 57.7248 59.2897C57.5171 59.2897 57.3787 59.3588 57.2633 59.474C57.171 59.5891 57.1018 59.7273 57.1018 59.8886C57.1018 60.0498 57.148 60.188 57.2633 60.3032C57.3556 60.4184 57.5171 60.4644 57.7017 60.4644C57.9324 60.4644 58.0939 60.4184 58.1862 60.3032Z" fill="#F5F1E9"/>
<path d="M55.7172 60.4641C55.9018 60.4641 56.0633 60.418 56.1786 60.3028C56.2709 60.1876 56.3401 60.0494 56.3401 59.8882C56.3401 59.727 56.294 59.5888 56.1786 59.4736C56.0633 59.3584 55.9249 59.3123 55.7172 59.3123C55.5327 59.3123 55.3712 59.3814 55.2789 59.4966C55.1866 59.6118 55.1174 59.75 55.1174 59.9112C55.1174 60.0725 55.1635 60.2107 55.2789 60.3258C55.3712 60.3949 55.5096 60.4641 55.7172 60.4641Z" fill="#F5F1E9"/>
<path d="M64.6459 64.1729C64.8304 63.8504 64.9458 63.4588 64.9458 63.0212C64.9458 62.3301 64.7612 61.7773 64.3921 61.4088C64.0229 61.0403 63.4923 60.856 62.8002 60.856H60.7929V67.9044H61.8312V65.1173H62.8924L64.1152 67.9044H65.1996V67.7431L63.8845 64.8869C64.2075 64.7257 64.4613 64.4723 64.6459 64.1729ZM61.8081 61.7773H62.7771C62.9847 61.7773 63.1462 61.8004 63.2847 61.8695C63.4231 61.9155 63.5384 62.0077 63.6077 62.1228C63.6999 62.238 63.7692 62.3532 63.7922 62.5144C63.8384 62.6757 63.8614 62.8369 63.8614 63.0442C63.8614 63.2054 63.8384 63.3667 63.7922 63.5279C63.7461 63.6661 63.6769 63.8043 63.5846 63.8965C63.4923 64.0116 63.3769 64.0807 63.2385 64.1498C63.1001 64.2189 62.9386 64.242 62.754 64.242H61.785L61.8081 61.7773Z" fill="#F5F1E9"/>
<path d="M69.5833 67.9044H70.6216V64.8869H72.9518V63.9656H70.6216V61.7773H73.344V60.856H69.5833V67.9044Z" fill="#F5F1E9"/>
<path d="M76.0895 60.856L73.8055 67.9044H74.8668L75.3974 66.1077H77.5892L78.1429 67.9044H79.2042L76.9201 60.856H76.0895ZM77.3585 65.2094H75.7204L76.551 62.4684L77.3585 65.2094Z" fill="#F5F1E9"/>
<path d="M81.6727 60.856H80.6344V67.9044H84.372V67.006H81.6727V60.856Z" fill="#F5F1E9"/>
<path d="M89.4477 64.7257C89.2862 64.5415 89.0786 64.3802 88.8479 64.242C88.5941 64.1038 88.3172 63.9887 87.9712 63.8735C87.5559 63.7353 87.2329 63.551 87.0252 63.3667C86.8407 63.1825 86.7484 62.9752 86.7484 62.6988C86.7484 62.5375 86.7714 62.3993 86.8176 62.2841C86.8637 62.169 86.9099 62.0538 87.0022 61.9617C87.0714 61.8695 87.1867 61.8004 87.3252 61.7544C87.4636 61.7083 87.602 61.6852 87.7866 61.6852C87.9712 61.6852 88.1557 61.7083 88.2942 61.7774C88.4326 61.8465 88.548 61.9156 88.6402 62.0308C88.7325 62.1459 88.8017 62.2841 88.8479 62.4223C88.894 62.5836 88.9171 62.7448 88.9171 62.9291V63.0212H89.9553V62.9291C89.9553 62.6527 89.9091 62.3763 89.8169 62.1229C89.7246 61.8695 89.5862 61.6162 89.4016 61.4319C89.217 61.2246 88.9863 61.0633 88.7325 60.9482C88.4557 60.833 88.1557 60.7639 87.8097 60.7639C87.5097 60.7639 87.2098 60.81 86.956 60.9021C86.7022 60.9942 86.4715 61.1324 86.31 61.3167C86.1485 61.501 85.987 61.7083 85.8947 61.9386C85.8025 62.169 85.7563 62.4454 85.7563 62.7218C85.7563 62.9982 85.8025 63.2516 85.8947 63.4589C85.987 63.6662 86.1254 63.8735 86.2869 64.0347C86.4484 64.196 86.6561 64.3572 86.8868 64.4724C87.1175 64.5875 87.3944 64.7027 87.6712 64.8179C87.925 64.91 88.1557 65.0021 88.3172 65.0943C88.4787 65.1864 88.5941 65.2786 88.6864 65.3707C88.7787 65.4628 88.8248 65.555 88.8709 65.6701C88.894 65.7853 88.9171 65.9235 88.9171 66.0617C88.9171 66.3842 88.8248 66.6145 88.6633 66.7988C88.4787 66.9831 88.2249 67.0752 87.8558 67.0752C87.6712 67.0752 87.5097 67.0522 87.3713 67.0061C87.2329 66.96 87.0945 66.8909 86.9791 66.7758C86.8637 66.6836 86.7714 66.5454 86.7253 66.3842C86.6561 66.223 86.633 66.0387 86.633 65.8083V65.7162H85.5948V65.8083C85.5948 66.1539 85.664 66.4763 85.8025 66.7527C85.9409 67.0291 86.1024 67.2595 86.3331 67.4437C86.5407 67.628 86.7945 67.7662 87.0714 67.8584C87.3482 67.9505 87.6251 67.9966 87.9019 67.9966C88.2249 67.9966 88.5249 67.9505 88.7787 67.8584C89.0324 67.7662 89.2632 67.628 89.4477 67.4668C89.6323 67.3056 89.7707 67.0982 89.863 66.8449C89.9553 66.6145 90.0014 66.3381 90.0014 66.0617C90.0014 65.7853 89.9553 65.5319 89.8861 65.3246C89.7246 65.1173 89.5862 64.91 89.4477 64.7257Z" fill="#F5F1E9"/>
<path d="M91.0398 61.7773H92.8393V67.9044H93.8775V61.7773H95.7002V60.856H91.0398V61.7773Z" fill="#F5F1E9"/>
<path d="M98.1917 64.7257H100.614V63.8274H98.1917V61.7773H100.983V60.856H97.1535V67.9044H101.03V67.006H98.1917V64.7257Z" fill="#F5F1E9"/>
<path d="M106.382 64.1729C106.567 63.8504 106.682 63.4588 106.682 63.0212C106.682 62.3301 106.497 61.7773 106.128 61.4088C105.759 61.0403 105.228 60.856 104.536 60.856H102.529V67.9044H103.567V65.1173H104.629L105.851 67.9044H106.936V67.7431L105.621 64.8869C105.944 64.7257 106.197 64.4723 106.382 64.1729ZM103.544 61.7773H104.513C104.721 61.7773 104.882 61.8004 105.021 61.8695C105.159 61.9155 105.275 62.0077 105.344 62.1228C105.436 62.238 105.505 62.3532 105.528 62.5144C105.574 62.6757 105.598 62.8369 105.598 63.0442C105.598 63.2054 105.574 63.3667 105.528 63.5279C105.482 63.6661 105.413 63.8043 105.321 63.8965C105.228 64.0116 105.113 64.0807 104.975 64.1498C104.836 64.2189 104.675 64.242 104.49 64.242H103.521L103.544 61.7773Z" fill="#F5F1E9"/>
<path d="M112.219 64.7714C112.127 64.6101 112.012 64.495 111.873 64.3798C111.781 64.3107 111.689 64.2416 111.573 64.1955C111.781 64.0573 111.965 63.8961 112.104 63.6888C112.265 63.4354 112.358 63.136 112.358 62.7904C112.358 62.468 112.311 62.1685 112.219 61.9382C112.127 61.7078 111.988 61.5005 111.827 61.3393C111.665 61.1781 111.435 61.0629 111.204 60.9938C110.973 60.9247 110.696 60.8786 110.373 60.8786H108.32V67.927H110.466C110.766 67.927 111.043 67.8809 111.296 67.7888C111.55 67.6967 111.758 67.5585 111.942 67.3972C112.127 67.213 112.265 67.0057 112.358 66.7523C112.45 66.4989 112.496 66.1995 112.496 65.877C112.496 65.6697 112.473 65.4854 112.427 65.3011C112.381 65.0708 112.288 64.9096 112.219 64.7714ZM110.466 67.0057H109.358V64.7023H110.489C110.65 64.7023 110.812 64.7253 110.927 64.7714C111.043 64.8174 111.135 64.9096 111.204 65.0017C111.273 65.0938 111.342 65.209 111.366 65.3702C111.412 65.5085 111.412 65.6927 111.412 65.854C111.412 66.0382 111.389 66.1995 111.342 66.3377C111.296 66.4759 111.227 66.591 111.158 66.6832C111.066 66.7753 110.973 66.8444 110.858 66.9135C110.766 66.9826 110.627 67.0057 110.466 67.0057ZM111.227 63.2051C111.181 63.3202 111.112 63.4354 111.043 63.5275C110.973 63.6197 110.858 63.6888 110.766 63.7348C110.65 63.7809 110.535 63.8039 110.397 63.8039H109.358V61.8H110.373C110.696 61.8 110.927 61.8691 111.089 62.0303C111.25 62.1916 111.319 62.4449 111.319 62.7904C111.296 62.9287 111.273 63.0899 111.227 63.2051Z" fill="#F5F1E9"/>
<path d="M118.149 61.5467C117.941 61.2933 117.687 61.086 117.387 60.9708C117.087 60.8326 116.764 60.7865 116.395 60.7865C116.049 60.7865 115.703 60.8556 115.403 60.9708C115.103 61.109 114.849 61.2933 114.642 61.5467C114.434 61.8 114.273 62.1225 114.157 62.491C114.042 62.8596 113.996 63.2972 113.996 63.804V65.0018C113.996 65.4855 114.065 65.9461 114.157 66.3147C114.273 66.6832 114.434 67.0057 114.642 67.2591C114.849 67.5125 115.103 67.6967 115.403 67.8349C115.703 67.9731 116.026 68.0192 116.395 68.0192C116.764 68.0192 117.087 67.9501 117.387 67.8349C117.687 67.6967 117.941 67.5125 118.149 67.2591C118.356 67.0057 118.518 66.6832 118.633 66.3147C118.748 65.9461 118.795 65.5085 118.795 65.0018V63.804C118.795 63.3203 118.748 62.8826 118.633 62.491C118.518 62.1225 118.356 61.8 118.149 61.5467ZM116.395 67.0748C116.187 67.0748 116.003 67.0288 115.818 66.9596C115.657 66.8905 115.518 66.7754 115.403 66.6141C115.288 66.4529 115.195 66.2226 115.126 65.9692C115.057 65.7158 115.034 65.3933 115.034 65.0018V63.804C115.034 63.4354 115.057 63.113 115.126 62.8596C115.195 62.6062 115.288 62.3759 115.403 62.2146C115.518 62.0534 115.657 61.9382 115.818 61.8691C115.98 61.8 116.164 61.754 116.395 61.754C116.626 61.754 116.81 61.8 116.995 61.8691C117.156 61.9382 117.295 62.0534 117.41 62.2146C117.526 62.3759 117.618 62.6062 117.687 62.8596C117.756 63.136 117.779 63.4354 117.779 63.827V65.0248C117.779 65.3933 117.756 65.7158 117.687 65.9922C117.618 66.2456 117.549 66.4759 117.433 66.6372C117.318 66.7984 117.18 66.9136 117.018 66.9827C116.81 67.0287 116.603 67.0748 116.395 67.0748Z" fill="#F5F1E9"/>
<path d="M148.58 41.1851C148.372 41.1851 148.21 41.2542 148.118 41.3694C148.003 41.4845 147.957 41.6227 147.957 41.807C147.957 41.9682 148.003 42.1064 148.118 42.2216C148.234 42.3368 148.372 42.4059 148.58 42.4059C148.787 42.4059 148.949 42.3368 149.041 42.2216C149.156 42.1064 149.203 41.9682 149.203 41.807C149.203 41.6227 149.156 41.4845 149.041 41.3694C148.926 41.2542 148.764 41.1851 148.58 41.1851Z" fill="#F5F1E9"/>
<path d="M154.117 39.1581C153.955 38.9738 153.748 38.8126 153.517 38.6744C153.263 38.5362 152.986 38.421 152.64 38.3058C152.225 38.1676 151.902 37.9834 151.694 37.7991C151.51 37.6148 151.417 37.4075 151.417 37.1311C151.417 36.9699 151.44 36.8317 151.487 36.7165C151.533 36.6013 151.579 36.4862 151.671 36.394C151.74 36.3019 151.856 36.2328 151.994 36.1867C152.133 36.1407 152.271 36.1176 152.456 36.1176C152.64 36.1176 152.825 36.1406 152.963 36.2097C153.102 36.2788 153.217 36.348 153.309 36.4631C153.402 36.5783 153.471 36.7165 153.517 36.8547C153.563 37.0159 153.586 37.1772 153.586 37.3614V37.4536H154.624V37.3614C154.624 37.085 154.578 36.8086 154.486 36.5553C154.394 36.3019 154.255 36.0485 154.071 35.8642C153.886 35.68 153.655 35.4957 153.402 35.3805C153.125 35.2654 152.825 35.1963 152.479 35.1963C152.179 35.1963 151.879 35.2423 151.625 35.3345C151.371 35.4266 151.141 35.5648 150.979 35.7491C150.794 35.9333 150.656 36.1406 150.564 36.371C150.471 36.6013 150.425 36.8777 150.425 37.1541C150.425 37.4306 150.471 37.6839 150.564 37.8912C150.656 38.0985 150.794 38.3058 150.956 38.4671C151.117 38.6283 151.325 38.7896 151.556 38.9047C151.787 39.0199 152.063 39.1351 152.34 39.2502C152.594 39.3424 152.825 39.4345 152.986 39.5266C153.148 39.6188 153.263 39.7109 153.355 39.8031C153.448 39.8952 153.494 39.9873 153.54 40.1025C153.563 40.2177 153.586 40.3559 153.586 40.4941C153.586 40.8165 153.494 41.0469 153.332 41.2312C153.148 41.4154 152.894 41.5076 152.525 41.5076C152.34 41.5076 152.179 41.4845 152.04 41.4385C151.902 41.3924 151.763 41.3233 151.648 41.2081C151.533 41.116 151.44 40.9778 151.394 40.8165C151.325 40.6553 151.302 40.471 151.302 40.2407V40.1486H150.264V40.2407C150.264 40.5862 150.333 40.9087 150.471 41.1851C150.61 41.4615 150.771 41.6918 151.002 41.8761C151.21 42.0604 151.464 42.1986 151.74 42.2907C152.017 42.3829 152.294 42.4289 152.571 42.4289C152.894 42.4289 153.194 42.3829 153.448 42.2907C153.701 42.1986 153.932 42.0604 154.117 41.8991C154.301 41.7379 154.44 41.5306 154.532 41.2772C154.624 41.0469 154.67 40.7705 154.67 40.4941C154.67 40.2177 154.624 39.9643 154.555 39.757C154.394 39.5497 154.278 39.3424 154.117 39.1581Z" fill="#F5F1E9"/>
<path d="M157.162 41.4377V39.1573H159.585V38.259H157.162V36.209H159.954V35.2876H156.124V42.336H160V41.4377H157.162Z" fill="#F5F1E9"/>
</svg>